<?xml version="1.0" encoding="UTF-8" standalone="no"?> <svg xmlns="http://www.w3.org/2000/svg" xmlns:xlink="http://www.w3.org/1999/xlink" viewBox="0 0 64 64"><defs><style>.cls-1{fill:url(#linear-gradient);}</style><linearGradient id="linear-gradient" x1="11.25" y1="32" x2="52.75" y2="32" gradientUnits="userSpaceOnUse"><stop offset="0" stop-color="#17a6d7"/><stop offset="1" stop-color="#9d31fe"/></linearGradient></defs><g id="Layer_18" data-name="Layer 18"><path class="cls-1" d="M50.91,4.87A4.26,4.26,0,0,0,47,4.4l-.14.07L22.18,17.75H15.5A4.26,4.26,0,0,0,11.25,22V42a4.26,4.26,0,0,0,4.25,4.25h6.68L46.83,59.53l.14.07a4.31,4.31,0,0,0,1.53.28,4.25,4.25,0,0,0,4.25-4.25V8.37A4.25,4.25,0,0,0,50.91,4.87ZM13.75,42V22a1.76,1.76,0,0,1,1.75-1.75h5.75v23.5H15.5A1.76,1.76,0,0,1,13.75,42Zm36.5,13.63a1.76,1.76,0,0,1-2.31,1.66l-24.19-13V19.75l24.19-13a1.76,1.76,0,0,1,2.31,1.66Z"/></g></svg>